PathFileType	4	(X/Y/Z)	/Users/niels/Desktop/University/Third Semester/Perception and Action/Exam/Gymnastics Motion Tracking/Code for Gym Tracking/Analyzed Data/Start Salto/stsalto_bad_id14_1_Sports2D/stsalto_bad_id14_1_Sports2D_px_person00.trc
DataRate	CameraRate	NumFrames	NumMarkers	Units	OrigDataRate	OrigDataStartFrame	OrigNumFrames
29.83695652173913	29.83695652173913	12	22	m	29.83695652173913	69	184
Frame#	Time	Hip			RHip			RKnee			RAnkle			RBigToe			RSmallToe			RHeel			LHip			LKnee			LAnkle			LBigToe			LSmallToe			LHeel			Neck			Head			Nose			RShoulder			RElbow			RWrist			LShoulder			LElbow			LWrist		
		X1	Y1	Z1	X2	Y2	Z2	X3	Y3	Z3	X4	Y4	Z4	X5	Y5	Z5	X6	Y6	Z6	X7	Y7	Z7	X8	Y8	Z8	X9	Y9	Z9	X10	Y10	Z10	X11	Y11	Z11	X12	Y12	Z12	X13	Y13	Z13	X14	Y14	Z14	X15	Y15	Z15	X16	Y16	Z16	X17	Y17	Z17	X18	Y18	Z18	X19	Y19	Z19	X20	Y20	Z20	X21	Y21	Z21	X22	Y22	Z22
69	2.312568306010929	0.8016450841365704	-0.22921665944853006	0.0	0.7933173005245955	-0.22864739725347252	0.0	0.6952678988542311	-0.31552777906670826	0.0	0.6639535024326059	-0.21367207164559238	0.0	0.5998003413110873	-0.21522034131259357	0.0	0.6092003506069358	-0.2093552839393411	0.0	0.663899706450031	-0.19636559367166337	0.0	0.8022140477068831	-0.232336037774924	0.0	0.7207356916638592	-0.323475963977611	0.0	0.6779457106026147	-0.21414437119871302	0.0	0.6130921606243668	-0.2089754023261498	0.0	0.627811378030278	-0.22025397233594085	0.0	0.6880340542703918	-0.19312019712343037	0.0	0.8739200798806147	-0.3968455443076411	0.0	0.8880405162687383	-0.47225522772161693	0.0	0.8498598462455799	-0.4360551765172483	0.0	0.8605447013031253	-0.3683248019721633	0.0	0.7773407827419556	-0.31023848130637144	0.0	0.7048908125566089	-0.31887186376553495	0.0	0.8802341612868823	-0.3790139902222222	0.0	0.7952930830703882	-0.3259636201923669	0.0	0.7269054148713303	-0.32605049226638677	0.0
70	2.3460837887067396	0.8163567209187333	-0.22701764613395495	0.0	0.8090572411513334	-0.22600432059948788	0.0	0.7049587557656094	-0.30735624895606845	0.0	0.6822226267433357	-0.20320874203720438	0.0	0.6184362849083564	-0.2010798540753306	0.0	0.6283735656918729	-0.19682175185177342	0.0	0.6832528524972334	-0.18518665798319012	0.0	0.817017203174869	-0.22810016928212498	0.0	0.7285023874944171	-0.3184862541747432	0.0	0.6953016388529555	-0.20431005856778245	0.0	0.6296657066779123	-0.19893388153131367	0.0	0.6400281187458451	-0.20917255454910477	0.0	0.7081514055700124	-0.1833627844623463	0.0	0.8742084841303229	-0.401582524492888	0.0	0.8821850055374202	-0.47552951565961316	0.0	0.8484907014982425	-0.43887063046024977	0.0	0.8625045184947855	-0.3719146588229895	0.0	0.7848861323653982	-0.30732615780007383	0.0	0.7134112606772461	-0.30918297590494775	0.0	0.8826158662713041	-0.383330568228794	0.0	0.8030566721027456	-0.32403191719646346	0.0	0.7344824953244216	-0.31959316224200546	0.0
71	2.3795992714025505	0.8306959978590567	-0.22522358690953048	0.0	0.8248451145709079	-0.2239698245867328	0.0	0.7160407227546322	-0.30001771328276683	0.0	0.6999665724609448	-0.19315277607731324	0.0	0.6382088995498081	-0.18747104720562954	0.0	0.6485813369674951	-0.18389385945406275	0.0	0.7025647768452109	-0.17524701746484916	0.0	0.8317578423557108	-0.22394411635193567	0.0	0.7370568119584116	-0.31350541873703214	0.0	0.7141434084642472	-0.19586939620125038	0.0	0.6484764090201687	-0.1875188201431653	0.0	0.6545296440274316	-0.19667829362785538	0.0	0.730030415799643	-0.17494421824426215	0.0	0.8738791199314955	-0.40522800116049695	0.0	0.8753598905826142	-0.477029130371662	0.0	0.8463350684782956	-0.4406878252013371	0.0	0.8639344053917543	-0.3744210150878218	0.0	0.7923347683983225	-0.30429837358150164	0.0	0.7213767691058085	-0.3001205112232362	0.0	0.8842652067725074	-0.3868652090662603	0.0	0.8107206456874361	-0.3238168535320545	0.0	0.7421991238321946	-0.31507600577318756	0.0
72	2.413114754098361	0.8454446985774074	-0.22413201927646553	0.0	0.8411219471411188	-0.22275614360950352	0.0	0.7281951707061457	-0.2928541411922363	0.0	0.7176427427595709	-0.18338533861802075	0.0	0.6588547411557962	-0.1737013907555409	0.0	0.6696946902895398	-0.1701168831631242	0.0	0.7219550613992689	-0.16671927366264266	0.0	0.8471194065770329	-0.22063129928145148	0.0	0.7472100196322091	-0.307636655253348	0.0	0.7346095618374712	-0.18827576639217578	0.0	0.669434637478095	-0.17385884367410614	0.0	0.6722335027556189	-0.18224208028261477	0.0	0.7527540971358628	-0.16735665038010544	0.0	0.87287446162626	-0.4079617681850621	0.0	0.8676099164102483	-0.4772227530973058	0.0	0.8433868429134643	-0.4415722400430384	0.0	0.8649626513519543	-0.3761162481292511	0.0	0.799767358910794	-0.3015362813932834	0.0	0.7292336881147039	-0.29162620246057186	0.0	0.8851232808067853	-0.38989145753472076	0.0	0.8179747526965526	-0.32436700118809736	0.0	0.7497807530687118	-0.311370235357148	0.0
73	2.4466302367941717	0.8609326184948181	-0.22394243510379253	0.0	0.8579119222274666	-0.22254805905614644	0.0	0.7407046277143788	-0.28525894883978603	0.0	0.7357350995140765	-0.17411526783073816	0.0	0.680287682922542	-0.15950971096774189	0.0	0.6916455293698812	-0.15584116689795396	0.0	0.7416435978338544	-0.15962813965742698	0.0	0.8632363359709505	-0.2189038954325726	0.0	0.7590245905709563	-0.30052139829477115	0.0	0.7563008303383807	-0.18120681913776562	0.0	0.6920758572270657	-0.15864114937627058	0.0	0.6936734242417351	-0.16682566680674987	0.0	0.7750616489491339	-0.16047247787949026	0.0	0.8713426943372519	-0.4099802548176148	0.0	0.8589369049090329	-0.4767212970804134	0.0	0.8398012095017873	-0.44141397373850755	0.0	0.8657895550468814	-0.3774637559114655	0.0	0.8072204362447947	-0.29956531642917	0.0	0.7376572068714254	-0.28372989944898186	0.0	0.8852196863866462	-0.3924752051965892	0.0	0.8244227135179444	-0.32481233332340753	0.0	0.7571103443550404	-0.3072846174625828	0.0
74	2.480145719489982	0.8769514929987555	-0.22475806221151753	0.0	0.8748802095016078	-0.22357463238490616	0.0	0.7528055928406171	-0.2769276667245977	0.0	0.7544346883101994	-0.16570201420433003	0.0	0.7025515083679471	-0.14526201410995201	0.0	0.7142513585292456	-0.14192231921721657	0.0	0.761652659897988	-0.15397564077687273	0.0	0.8797473881665698	-0.21925242316077562	0.0	0.7719288777936267	-0.29244028091049296	0.0	0.7784636094902575	-0.17467875226594412	0.0	0.7159735240005533	-0.14367997528440843	0.0	0.7187804168814312	-0.15239828416823323	0.0	0.7960762964763931	-0.1545092902569608	0.0	0.8696223627164252	-0.4114030441303852	0.0	0.8495133716219624	-0.47588843237344297	0.0	0.8358714003749889	-0.4399672962758664	0.0	0.866719009912746	-0.3789333468075415	0.0	0.8146110815039188	-0.2986535887725885	0.0	0.7470944291391385	-0.2765851741685452	0.0	0.8846921239065233	-0.3946021266588973	0.0	0.8299719393859248	-0.3246466194836302	0.0	0.7643787444581769	-0.30203821935752617	0.0
75	2.5136612021857925	0.8929827317129737	-0.22661254671952183	0.0	0.8915887931752526	-0.2259868618613454	0.0	0.7640746399209928	-0.2680668356588284	0.0	0.7735874602929117	-0.15842401825040114	0.0	0.7255351293550121	-0.13180111264424027	0.0	0.7370172822311524	-0.129333861872987	0.0	0.7817388964152931	-0.14962112147089868	0.0	0.8960441209999227	-0.22171349681777058	0.0	0.7851512640475351	-0.2841134888686828	0.0	0.800169342966852	-0.16884137109182046	0.0	0.7405789399149022	-0.13089255331754582	0.0	0.7467915808243684	-0.14074869261152684	0.0	0.8155880429512419	-0.14963580215519995	0.0	0.8680734785146494	-0.41226651787198026	0.0	0.8397995907737549	-0.4747432174684783	0.0	0.831908917258332	-0.4370384939246559	0.0	0.8680092301098238	-0.38076577283029694	0.0	0.8217931086455305	-0.29851046756717436	0.0	0.7575492627711241	-0.2703707432284242	0.0	0.8837776744018432	-0.396257057531603	0.0	0.8347694663102553	-0.323672704347388	0.0	0.7719667775241883	-0.29531510622617263	0.0
76	2.5471766848816033	0.9085481170244727	-0.22951033453380906	0.0	0.9076523184864334	-0.22964082821869403	0.0	0.7745760407152817	-0.2593126936446053	0.0	0.7928484835243288	-0.1523821013479075	0.0	0.748695511549484	-0.1200586777620525	0.0	0.7592722519624227	-0.11888589839687037	0.0	0.801580155105811	-0.14623669318861496	0.0	0.9115742784868016	-0.22593696336159055	0.0	0.7980628106420725	-0.2763278773980277	0.0	0.8205933466508192	-0.16382224138377718	0.0	0.7649309633745264	-0.12138690611642411	0.0	0.776220898952482	-0.13261427538007245	0.0	0.8338466435924309	-0.1459109765939124	0.0	0.8668672021505709	-0.4125315931830775	0.0	0.83046805170377	-0.4730662475118432	0.0	0.828215501420901	-0.4326901524724277	0.0	0.8696474474752509	-0.38281107077993076	0.0	0.8286111607774913	-0.29837424474446195	0.0	0.7686274328647207	-0.26511948595619783	0.0	0.8827906804581958	-0.3973772445176794	0.0	0.8388930441957225	-0.32161442792696127	0.0	0.7801119970029906	-0.2871642495828773	0.0
77	2.5806921675774137	0.9234000247096649	-0.2334071670845106	0.0	0.9228453498665729	-0.23411192811092624	0.0	0.7847604782695355	-0.25132318411114285	0.0	0.8119682822891743	-0.14749110792157474	0.0	0.771267822913437	-0.11058558287822877	0.0	0.7806926019506125	-0.11089016291315343	0.0	0.821090577750348	-0.14344360750423318	0.0	0.9260771020200912	-0.23135899320973694	0.0	0.8102323739724336	-0.26949817850895463	0.0	0.8394294621654116	-0.15970971061575784	0.0	0.7879976067973226	-0.11518423556786832	0.0	0.805122901624758	-0.12750698700397003	0.0	0.8513354208694281	-0.14338786543681464	0.0	0.8659639629319255	-0.41207482998279205	0.0	0.8221592121322436	-0.47053259017147775	0.0	0.8251573935788387	-0.4272366891302101	0.0	0.871368370522932	-0.3846473109065943	0.0	0.8349165066807351	-0.29736480486897326	0.0	0.7797034334831547	-0.26057608514106784	0.0	0.8820427820299072	-0.3978548979263559	0.0	0.8424131252593754	-0.3181009141296403	0.0	0.7887608788089918	-0.27813621448846	0.0
78	2.614207650273224	0.9374344213689524	-0.23815475314708226	0.0	0.9371123236605584	-0.23895805148374263	0.0	0.7951854115023831	-0.24448184420328548	0.0	0.8309642029772255	-0.14355953304398955	0.0	0.792793579598314	-0.10335070173041497	0.0	0.8015613765619791	-0.10503439557841324	0.0	0.8405565437981705	-0.14093089268982315	0.0	0.939500237516292	-0.23735858735865537	0.0	0.8212859639669678	-0.26340615871541734	0.0	0.8568949181986909	-0.1564758871261492	0.0	0.8092486361864655	-0.1115090489955503	0.0	0.8316869609797564	-0.12402781875168202	0.0	0.8684942216236418	-0.14196736810472796	0.0	0.8652787982869806	-0.410760962707694	0.0	0.8152022206914822	-0.4668559212700928	0.0	0.823136690387278	-0.42104866104399713	0.0	0.8729040739359774	-0.38592581079937044	0.0	0.8406446489154701	-0.2949573613805388	0.0	0.7901705631810838	-0.2563540082360321	0.0	0.8816444604739789	-0.3975707503558615	0.0	0.8455764353342081	-0.3131492837155301	0.0	0.7975669288652859	-0.2691658223646591	0.0
79	2.647723132969035	0.9506907832748166	-0.24354209919300485	0.0	0.950537473572348	-0.24400056193541034	0.0	0.8063949715954892	-0.23888895643550825	0.0	0.8501623703117536	-0.1403861044905627	0.0	0.8135902337956146	-0.0978635936408691	0.0	0.8227029038964278	-0.10061160420391636	0.0	0.8605363496644828	-0.13846644263858765	0.0	0.9518989004046677	-0.2434819078161974	0.0	0.8310303489331147	-0.25736376445410136	0.0	0.8735298161574478	-0.15392959496307335	0.0	0.829000737969833	-0.10924064586359969	0.0	0.85489857798867	-0.12056383690048264	0.0	0.8856658488675573	-0.1413065118592725	0.0	0.8648113791401685	-0.40857565870845525	0.0	0.8094905894431869	-0.4618191590715177	0.0	0.8223817363645995	-0.41440155217284297	0.0	0.8742099671192162	-0.3866060487070243	0.0	0.8459874920596782	-0.291403184103142	0.0	0.7997457641744524	-0.25226878436124617	0.0	0.881434738886225	-0.39638157712977473	0.0	0.8488142793035781	-0.3074981658651725	0.0	0.8060122605945206	-0.2609529537144437	0.0
80	2.6812386156648453	0.9634754706380081	-0.24940445076320789	0.0	0.9633385810746389	-0.24936844163257918	0.0	0.8189527557483132	-0.23442210255732523	0.0	0.8700506289689717	-0.13776944643909692	0.0	0.8347111038328753	-0.09342433063684344	0.0	0.8451544727521919	-0.09681591425409332	0.0	0.8815525380039198	-0.13590864897671956	0.0	0.96355018792563	-0.24959330697014315	0.0	0.8398075163347496	-0.2507835587854544	0.0	0.8901536226306692	-0.15194602210702715	0.0	0.8484734801257051	-0.10729669064965829	0.0	0.8750511239200452	-0.1161204554846939	0.0	0.9033022134520918	-0.14107921506668433	0.0	0.8646527127347982	-0.4056273381305269	0.0	0.8047038662820838	-0.45520113776830606	0.0	0.8228171863817986	-0.4074156575218972	0.0	0.8754766869573002	-0.3868482307531961	0.0	0.8513781222044133	-0.2875920006874403	0.0	0.8085531634311669	-0.24839996367679737	0.0	0.8812619720206493	-0.394207074776069	0.0	0.8525763272414345	-0.30233098916488355	0.0	0.8137761586121796	-0.2537439522470932	0.0
